<svg width="23" height="23" viewBox="0 0 23 23" fill="none" xmlns="http://www.w3.org/2000/svg">
<path fill-rule="evenodd" clip-rule="evenodd" d="M18.1721 18.3478H15.209V13.0646C15.209 11.8365 14.78 10.9982 13.7076 10.9982C12.8889 10.9982 12.4018 11.5637 12.1872 12.1094C12.1093 12.3042 12.0896 12.5772 12.0896 12.8503V18.3478H9.12645V11.8559C9.12645 10.6668 9.08751 9.67263 9.04857 8.81474H11.6217L11.7584 10.1405H11.8168C12.2067 9.51648 13.162 8.60016 14.7606 8.60016C16.7102 8.60016 18.1721 9.90655 18.1721 12.7138V18.3478ZM5.85179 7.64504C4.91626 7.64504 4.31188 6.98198 4.31188 6.16341C4.31188 5.32525 4.93561 4.68192 5.89073 4.68192C6.84599 4.68192 7.4309 5.32525 7.45037 6.16341C7.45037 6.98198 6.84599 7.64504 5.85179 7.64504ZM4.38976 18.3478H7.35301V8.81473H4.38976V18.3478ZM20.0903 0.714355H2.50616C1.27959 0.714355 0.285645 1.71175 0.285645 2.9423V20.7723C0.285645 22.0027 1.27959 23.0001 2.50616 23.0001H20.0903C21.3169 23.0001 22.3108 22.0027 22.3108 20.7723V2.9423C22.3108 1.71175 21.3169 0.714355 20.0903 0.714355Z" fill="white"/>
</svg>
