<svg width="64" height="64" viewBox="0 0 64 64" fill="none" xmlns="http://www.w3.org/2000/svg">
<path fill-rule="evenodd" clip-rule="evenodd" d="M47.8602 47.974C47.0502 45.546 44.9202 43.808 42.3802 43.496C39.4962 43.142 35.5562 42.76 32.0002 42.76C28.4442 42.76 24.5042 43.142 21.6202 43.496C19.0802 43.808 16.9502 45.548 16.1402 47.974L15.2082 50.772C14.3502 53.344 16.2642 56 18.9762 56H45.0262C47.7382 56 49.6522 53.344 48.7942 50.772L47.8602 47.974Z" stroke="white" stroke-width="2" stroke-linecap="round" stroke-linejoin="round"/>
<circle cx="32.0003" cy="26.858" r="9.93" stroke="white" stroke-width="2" stroke-linecap="round" stroke-linejoin="round"/>
<path d="M52.4443 41.9941L56.9323 41.9921C59.4103 41.9921 61.1603 39.5621 60.3763 37.2121L59.5223 34.6541C58.7823 32.4341 56.8323 30.8461 54.5103 30.5621C52.8143 30.3541 50.7163 30.1361 48.5703 30.0081" stroke="white" stroke-width="2" stroke-linecap="round" stroke-linejoin="round"/>
<path d="M36.5264 11.964C37.8244 8.54 41.1344 6.106 45.0144 6.104C50.0284 6.102 54.0944 10.166 54.0964 15.18C54.0984 18.934 51.8204 22.156 48.5724 23.538" stroke="white" stroke-width="2" stroke-linecap="round" stroke-linejoin="round"/>
<path d="M12 42L7.51204 42.002C5.03404 42.002 3.28204 39.576 4.06604 37.224L4.91804 34.666C5.65804 32.446 7.60404 30.856 9.92604 30.57C11.622 30.362 13.72 30.142 15.864 30.012" stroke="white" stroke-width="2" stroke-linecap="round" stroke-linejoin="round"/>
<path d="M27.904 11.966C26.604 8.53996 23.292 6.10596 19.41 6.10596C14.396 6.10796 10.332 10.174 10.334 15.186C10.336 18.94 12.614 22.16 15.862 23.542" stroke="white" stroke-width="2" stroke-linecap="round" stroke-linejoin="round"/>
</svg>
