<svg width="64" height="64" viewBox="0 0 64 64" fill="none" xmlns="http://www.w3.org/2000/svg">
<path d="M60 26V56C60 58.21 58.21 60 56 60H8C5.79 60 4 58.21 4 56V26" stroke="#D8232A" stroke-width="2" stroke-linecap="round" stroke-linejoin="round"/>
<path d="M11.788 19.882L4 26" stroke="#D8232A" stroke-width="2" stroke-linecap="round" stroke-linejoin="round"/>
<path d="M32 4L21.894 11.94" stroke="#D8232A" stroke-width="2" stroke-linecap="round" stroke-linejoin="round"/>
<path d="M41.722 11.64L32 4" stroke="#D8232A" stroke-width="2" stroke-linecap="round" stroke-linejoin="round"/>
<path d="M60 26L52.082 19.778" stroke="#D8232A" stroke-width="2" stroke-linecap="round" stroke-linejoin="round"/>
<path d="M26.118 41.7419L10 53.9999" stroke="#D8232A" stroke-width="2" stroke-linecap="round" stroke-linejoin="round"/>
<path d="M53.9998 53.9999L37.8818 41.7419" stroke="#D8232A" stroke-width="2" stroke-linecap="round" stroke-linejoin="round"/>
<path d="M60 26L32 46.028L4 26" stroke="#D8232A" stroke-width="2" stroke-linecap="round" stroke-linejoin="round"/>
<path d="M12 30.302V14C12 12.896 12.896 12 14 12H50C51.104 12 52 12.896 52 14V30.302" stroke="#D8232A" stroke-width="2" stroke-linecap="round" stroke-linejoin="round"/>
<path d="M20 20H44" stroke="#D8232A" stroke-width="2" stroke-linecap="round" stroke-linejoin="round"/>
<path d="M20 28H44" stroke="#D8232A" stroke-width="2" stroke-linecap="round" stroke-linejoin="round"/>
</svg>
