<svg width="100" height="173" viewBox="0 0 100 173" fill="none" xmlns="http://www.w3.org/2000/svg">
<mask id="mask0_0_776" style="mask-type:luminance" maskUnits="userSpaceOnUse" x="0" y="18" width="100" height="125">
<path fill-rule="evenodd" clip-rule="evenodd" d="M0 18.1816H100V142.045H0V18.1816Z" fill="white"/>
</mask>
<g mask="url(#mask0_0_776)">
<path fill-rule="evenodd" clip-rule="evenodd" d="M15.645 142.045L15.5716 137.294C15.5606 137.01 15.4816 136.733 15.3403 136.488L0.232889 110.241C-0.0791531 109.7 -0.0773176 109.035 0.23656 108.494C0.550437 107.955 1.12955 107.622 1.75547 107.622H10.5651C11.1947 107.622 11.7766 107.958 12.0896 108.502L20.377 122.9C20.533 123.17 20.8212 123.338 21.1342 123.34C21.4481 123.34 21.7381 123.176 21.8959 122.907L30.3761 108.491C30.6909 107.954 31.2673 107.623 31.8914 107.623H40.746C41.3747 107.624 41.9547 107.959 42.2668 108.502C42.5797 109.044 42.5779 109.712 42.2631 110.252L26.9648 136.263C26.7959 136.55 26.7124 136.879 26.7243 137.21L26.7932 141.826L15.645 142.045Z" fill="#1A1919"/>
<path fill-rule="evenodd" clip-rule="evenodd" d="M100.036 18.1816V27.5263C100.036 34.1711 96.981 39.3507 91.434 42.1118C88.9386 43.3393 86.2036 44.0075 83.4209 44.0715H72.036C65.8576 44.0715 62.0966 41.5571 60.0288 39.4512C55.4565 34.7926 55.3207 28.4723 55.3326 27.3984V18.1816H66.4844V27.5364C66.5312 28.6524 66.8148 29.7464 67.3196 30.7445C67.9171 31.8422 68.945 32.9646 72.0351 32.9646H83.3723C84.5168 32.896 85.6319 32.5908 86.6506 32.0698C87.7547 31.4638 88.8808 30.4511 88.8808 27.5263V18.1816H100.036Z" fill="#1A1919"/>
</g>
<path fill-rule="evenodd" clip-rule="evenodd" d="M44.3172 100H17.4806C4.82911 100 0.0959741 89.7897 0 82.9272V71.7473C0 59.5827 10.3291 54.7969 17.2715 54.5492L17.4806 54.5454H44.3182V65.9076H17.6488C16.3954 66.0339 15.1782 66.3995 14.0673 66.9849C12.8244 67.675 11.5492 68.7812 11.5483 71.7463V82.7542C11.7687 87.87 15.3559 88.6359 17.4806 88.6359H44.3172V100Z" fill="#1A1919"/>
<path fill-rule="evenodd" clip-rule="evenodd" d="M55.6816 72.1904L77.7851 54.9123C78.0894 54.6752 78.4611 54.5454 78.8427 54.5454H91.3484C92.0954 54.5454 92.7613 55.0346 93.0009 55.761C93.2395 56.4874 93.0009 57.2885 92.4051 57.7534L69.2977 75.8176C68.865 76.1556 68.6118 76.6803 68.6118 77.2386C68.6118 77.7951 68.865 78.3207 69.2977 78.6587L92.4953 96.792C93.0901 97.2569 93.3297 98.0589 93.0892 98.7853C92.8496 99.5117 92.1856 100 91.4377 100H78.932C78.5494 99.999 78.1787 99.8711 77.8744 99.633L55.6816 82.285V72.1904Z" fill="#1A1919"/>
<g filter="url(#filter0_i_0_776)">
<path fill-rule="evenodd" clip-rule="evenodd" d="M97.9198 127.492V136.882C97.9198 143.56 94.8594 148.765 89.3029 151.54C86.8033 152.773 84.0646 153.445 81.2763 153.509H69.872C63.684 153.509 59.9157 150.982 57.8444 148.866C53.2652 144.184 53.1283 137.833 53.1402 136.754V127.492H64.311V136.892C64.3579 138.014 64.6429 139.113 65.1485 140.116C65.746 141.22 66.7757 142.347 69.8711 142.347H81.2285C82.3739 142.279 83.4919 141.972 84.5114 141.448C85.6173 140.839 86.7463 139.822 86.7463 136.882V127.492H97.9198Z" fill="white"/>
</g>
<path fill-rule="evenodd" clip-rule="evenodd" d="M0 9.63775H100V0H0V9.63775Z" fill="white"/>
<path fill-rule="evenodd" clip-rule="evenodd" d="M0 172.727H100V163.089H0V172.727Z" fill="white"/>
<path fill-rule="evenodd" clip-rule="evenodd" d="M11.0795 19.3184V32.1519C11.0795 33.0657 11.8602 33.8072 12.8244 33.8072H42.5733C43.036 33.8063 43.4808 33.9814 43.8072 34.292C44.1356 34.6026 44.3182 35.0236 44.3182 35.4626V42.6639C44.3182 43.5778 43.5375 44.3184 42.5743 44.3184H1.74392C0.780649 44.3184 0 43.5778 0 42.6639V19.3184H11.0795Z" fill="#1A1919"/>
<defs>
<filter id="filter0_i_0_776" x="53.1396" y="127.492" width="44.7803" height="27.0171" filterUnits="userSpaceOnUse" color-interpolation-filters="sRGB">
<feFlood flood-opacity="0" result="BackgroundImageFix"/>
<feBlend mode="normal" in="SourceGraphic" in2="BackgroundImageFix" result="shape"/>
<feColorMatrix in="SourceAlpha" type="matrix" values="0 0 0 0 0 0 0 0 0 0 0 0 0 0 0 0 0 0 127 0" result="hardAlpha"/>
<feOffset dy="1"/>
<feGaussianBlur stdDeviation="1.5"/>
<feComposite in2="hardAlpha" operator="arithmetic" k2="-1" k3="1"/>
<feColorMatrix type="matrix" values="0 0 0 0 0 0 0 0 0 0 0 0 0 0 0 0 0 0 0.5 0"/>
<feBlend mode="normal" in2="shape" result="effect1_innerShadow_0_776"/>
</filter>
</defs>
</svg>
