<svg width="88" height="152" viewBox="0 0 88 152" fill="none" xmlns="http://www.w3.org/2000/svg">
<mask id="mask0_0_733" style="mask-type:luminance" maskUnits="userSpaceOnUse" x="0" y="16" width="88" height="109">
<path fill-rule="evenodd" clip-rule="evenodd" d="M0 16H88V125H0V16Z" fill="white"/>
</mask>
<g mask="url(#mask0_0_733)">
<path fill-rule="evenodd" clip-rule="evenodd" d="M13.7676 125L13.703 120.818C13.6933 120.569 13.6238 120.325 13.4995 120.11L0.204942 97.0123C-0.0696548 96.5361 -0.0680395 95.9506 0.208173 95.4752C0.484385 95.0007 0.994004 94.7079 1.54481 94.7071H9.29733C9.85137 94.7071 10.3634 95.0031 10.6388 95.4816L17.9318 108.152C18.0691 108.39 18.3227 108.537 18.5981 108.539C18.8743 108.54 19.1295 108.395 19.2684 108.158L26.731 95.472C27.008 94.9999 27.5152 94.7087 28.0644 94.7087H35.8565C36.4097 94.7095 36.9202 95.0039 37.1947 95.4816C37.4702 95.9586 37.4685 96.5466 37.1915 97.0219L23.729 119.911C23.5804 120.164 23.5069 120.453 23.5174 120.745L23.578 124.807L13.7676 125Z" fill="#1A1919"/>
<path fill-rule="evenodd" clip-rule="evenodd" d="M88.0321 16V24.2233C88.0321 30.0707 85.3435 34.6287 80.4621 37.0586C78.2661 38.1388 75.8594 38.7267 73.4106 38.783H63.3919C57.9549 38.783 54.6452 36.5704 52.8256 34.7172C48.8019 30.6176 48.6824 25.0558 48.6929 24.1107V16H58.5065V24.2322C58.5477 25.2142 58.7972 26.177 59.2414 27.0553C59.7672 28.0213 60.6718 29.009 63.3911 29.009H73.3678C74.3749 28.9487 75.3562 28.68 76.2527 28.2216C77.2243 27.6883 78.2153 26.7971 78.2153 24.2233V16H88.0321Z" fill="#1A1919"/>
</g>
<path fill-rule="evenodd" clip-rule="evenodd" d="M38.9992 88H15.3829C4.24962 88 0.0844572 79.015 0 72.9759V63.1376C0 52.4328 9.0896 48.2214 15.199 48.0033L15.3829 48H39V57.9988H15.5309C14.428 58.1099 13.3568 58.4316 12.3793 58.9467C11.2855 59.554 10.1633 60.5275 10.1625 63.1368V72.8237C10.3565 77.3257 13.5132 77.9996 15.3829 77.9996H38.9992V88Z" fill="#1A1919"/>
<path fill-rule="evenodd" clip-rule="evenodd" d="M49 63.5276L68.4511 48.3229C68.7188 48.1142 69.0459 48 69.3818 48H80.3867C81.0441 48 81.6301 48.4305 81.8409 49.0697C82.0509 49.7089 81.8409 50.4139 81.3166 50.823L60.9822 66.7195C60.6014 67.0169 60.3785 67.4787 60.3785 67.97C60.3785 68.4597 60.6014 68.9223 60.9822 69.2197L81.396 85.177C81.9195 85.5861 82.1303 86.2919 81.9187 86.9311C81.7078 87.5703 81.1234 88 80.4653 88H69.4603C69.1236 87.9992 68.7974 87.8866 68.5296 87.6771L49 72.4108V63.5276Z" fill="#1A1919"/>
<path fill-rule="evenodd" clip-rule="evenodd" d="M86.1692 112.193V120.456C86.1692 126.332 83.476 130.913 78.5864 133.355C76.3867 134.44 73.9766 135.031 71.5229 135.088H61.4872C56.0417 135.088 52.7256 132.864 50.9029 131.002C46.8732 126.882 46.7527 121.293 46.7632 120.343V112.193H56.5935V120.465C56.6347 121.452 56.8855 122.42 57.3305 123.302C57.8563 124.273 58.7624 125.266 61.4864 125.266H71.4809C72.4889 125.205 73.4726 124.935 74.3698 124.474C75.3431 123.938 76.3365 123.043 76.3365 120.456V112.193H86.1692Z" fill="#D8232A"/>
<path fill-rule="evenodd" clip-rule="evenodd" d="M0 8.48122H88V0H0V8.48122Z" fill="#D8232A"/>
<path fill-rule="evenodd" clip-rule="evenodd" d="M0 152H88V143.519H0V152Z" fill="#D8232A"/>
<path fill-rule="evenodd" clip-rule="evenodd" d="M9.75 17V28.2935C9.75 29.0977 10.437 29.7502 11.2855 29.7502H37.4645C37.8717 29.7494 38.2631 29.9034 38.5503 30.1768C38.8393 30.4501 39 30.8206 39 31.2069V37.5441C39 38.3483 38.313 39 37.4653 39H1.53465C0.686972 39 0 38.3483 0 37.5441V17H9.75Z" fill="#1A1919"/>
</svg>
