<svg width="89" height="63" viewBox="0 0 89 63" fill="none" xmlns="http://www.w3.org/2000/svg">
<path fill-rule="evenodd" clip-rule="evenodd" d="M88.1692 24.1925V32.4563C88.1692 38.3325 85.476 42.9129 80.5864 45.3547C78.3867 46.4403 75.9766 47.0311 73.5229 47.0877H63.4872C58.0417 47.0877 54.7256 44.8641 52.9029 43.0019C48.8732 38.8821 48.7527 33.2929 48.7632 32.3431V24.1925H58.5935V32.4652C58.6347 33.4521 58.8855 34.4196 59.3305 35.3022C59.8563 36.273 60.7624 37.2655 63.4864 37.2655H73.4809C74.4889 37.2049 75.4726 36.9349 76.3698 36.4742C77.3431 35.9383 78.3365 35.0428 78.3365 32.4563V24.1925H88.1692Z" fill="#D8232A"/>
<path fill-rule="evenodd" clip-rule="evenodd" d="M0 8.48122H88V0H0V8.48122Z" fill="#D8232A"/>
<path fill-rule="evenodd" clip-rule="evenodd" d="M0 63H88V54.5188H0V63Z" fill="#D8232A"/>
<path fill-rule="evenodd" clip-rule="evenodd" d="M9.75 17V28.2935C9.75 29.0977 10.437 29.7502 11.2855 29.7502H37.4645C37.8717 29.7494 38.2631 29.9034 38.5503 30.1768C38.8393 30.4501 39 30.8206 39 31.2069V37.5441C39 38.3483 38.313 39 37.4653 39H1.53465C0.686972 39 0 38.3483 0 37.5441V17H9.75Z" fill="#1A1919"/>
</svg>
